<svg xmlns="http://www.w3.org/2000/svg" width="48.846" height="28.907" viewBox="0 0 48.846 28.907">
  <path id="fast-delivery" d="M34.822.288c4.235.983,5.855,3.459,7.886,6.868H34.822ZM10.072,7.441A1.256,1.256,0,0,1,11.5,8.777a1.431,1.431,0,0,1-1.427,1.431H1.431a1.431,1.431,0,1,0,0,2.862H14.31a1.431,1.431,0,1,1,.006,2.862H1.431a1.431,1.431,0,1,0,0,2.862H4.579v4.293A1.431,1.431,0,0,0,6.01,24.519H8.886a5.487,5.487,0,0,0,10.751,0h14.53a5.487,5.487,0,0,0,10.751,0h2.5a1.431,1.431,0,0,0,1.431-1.431V14.5c0-4.2-4.429-4.478-4.433-4.484H33.39a1.431,1.431,0,0,1-1.431-1.431V0H6.01A1.431,1.431,0,0,0,4.579,1.431V4.579H2.862a1.431,1.431,0,1,0,0,2.862ZM41.4,21.566a2.624,2.624,0,1,1-4.479,1.855A2.624,2.624,0,0,1,41.4,21.566Zm-25.282,0a2.624,2.624,0,1,1-4.479,1.855A2.624,2.624,0,0,1,16.117,21.566Zm0,0" transform="translate(0)" fill-rule="evenodd"/>
</svg>
