<svg xmlns="http://www.w3.org/2000/svg" width="44.516" height="44.516" viewBox="0 0 44.516 44.516">
  <g id="Group_32141" data-name="Group 32141" transform="translate(-1305.742 -1392.742)">
    <path id="Path_22373" data-name="Path 22373" d="M17.744,22H16.308a1.436,1.436,0,1,1-2.872,0H12a2.872,2.872,0,0,0,5.744,0Z" transform="translate(1302.357 1386.538)"/>
    <path id="Path_22374" data-name="Path 22374" d="M28.872,24.872A2.875,2.875,0,0,0,31.744,22H30.308a1.436,1.436,0,1,1-2.872,0H26A2.875,2.875,0,0,0,28.872,24.872Z" transform="translate(1298.41 1386.538)"/>
    <path id="Path_22375" data-name="Path 22375" d="M25.18,30H23.744a1.437,1.437,0,0,1-1.436,1.436H18v1.436h4.308A2.875,2.875,0,0,0,25.18,30Z" transform="translate(1300.666 1384.282)"/>
    <path id="Path_22376" data-name="Path 22376" d="M26.209,36.081a2.129,2.129,0,0,0-1.277-2.935,6.47,6.47,0,0,0-2.8-4.741,7.91,7.91,0,0,0,5.675-6.865h.754a3.58,3.58,0,0,0,2.6-6.051l2.616-3.27L31.81,9.591,36.24,7.376l-.7-.7a12.882,12.882,0,0,0-8.421-3.78L29.284,0H12.774A10.773,10.773,0,0,0,2.108,12.3l.519,3.631A3.585,3.585,0,0,0,5.59,21.54h.755a7.911,7.911,0,0,0,5.675,6.865,6.47,6.47,0,0,0-2.8,4.741,2.129,2.129,0,0,0-1.277,2.935A4.307,4.307,0,0,0,9.18,44.516h6.462a2.151,2.151,0,0,0,2.022-1.436h.265a2.151,2.151,0,0,0,2.022,1.436h5.026a4.307,4.307,0,0,0,1.232-8.434Zm-5.541-.9a.719.719,0,0,1,.718-.718h2.872a.718.718,0,0,1,0,1.436H21.386A.719.719,0,0,1,20.668,35.182Zm7.9-15.078h-.718V19.052l1.834-1.223-.8-1.195-1.038.692V15.8h.718a2.154,2.154,0,1,1,0,4.308ZM12.773,1.436H26.412L24.258,4.308h2.1A11.451,11.451,0,0,1,33.775,7L29.629,9.077l2.336,3.115-1.974,2.467a3.556,3.556,0,0,0-1.426-.3h-.718V12.206A5.032,5.032,0,0,0,22.822,7.18H16.36V8.616h6.462a3.6,3.6,0,0,1,3.517,2.872H14.924A4.312,4.312,0,0,1,10.616,7.18V5.744H9.18V7.18a5.7,5.7,0,0,0,.88,3.041A5.033,5.033,0,0,0,6.365,14.36H5.59a3.541,3.541,0,0,0-1.674.434l-.386-2.7A9.341,9.341,0,0,1,12.774,1.436ZM3.436,17.95A2.157,2.157,0,0,1,5.59,15.8h.718v1.531L5.27,16.634l-.8,1.195,1.834,1.223V20.1H5.59A2.157,2.157,0,0,1,3.436,17.95Zm4.308,2.872V15.078a3.586,3.586,0,0,1,3.413-3.572,5.713,5.713,0,0,0,3.767,1.418H26.412v7.9a6.469,6.469,0,0,1-6.462,6.462H14.206a6.469,6.469,0,0,1-6.462-6.462Zm12.3,7.894-.353.881-.876-.877H19.95c.03,0,.06,0,.09,0Zm-4.695,0-.877.877-.353-.881c.031,0,.06,0,.09,0Zm-2.447.816,1.046,2.615,3.134-3.134,3.134,3.134,1.046-2.615a5.045,5.045,0,0,1,2.229,3.492h-2.1a2.147,2.147,0,0,0-2,2.955,2.151,2.151,0,0,0-1.462,1.353h-.265A2.151,2.151,0,0,0,15.641,35.9h-.85a2.113,2.113,0,0,0,.133-.718,2.157,2.157,0,0,0-2.154-2.154h-2.1A5.045,5.045,0,0,1,12.9,29.536Zm6.334,12.108H17.8V38.772h1.436a1.436,1.436,0,1,1,0,2.872ZM9.9,34.464H12.77a.718.718,0,0,1,0,1.436H9.9a.718.718,0,0,1,0-1.436Zm6.462,7.9a.719.719,0,0,1-.718.718H9.18a2.872,2.872,0,0,1,0-5.744h6.462a.719.719,0,0,1,.718.718Zm8.616.718H19.95a.716.716,0,0,1-.239-.048,2.863,2.863,0,0,0,0-5.648.716.716,0,0,1,.239-.048h5.026a2.872,2.872,0,1,1,0,5.744Z" transform="translate(1305.178 1392.742)"/>
    <path id="Path_22377" data-name="Path 22377" d="M1.436,36.308H2.872V34.872H4.308V33.436H2.872V32H1.436v1.436H0v1.436H1.436Z" transform="translate(1305.742 1383.718)"/>
    <path id="Path_22378" data-name="Path 22378" d="M1.436,44.308H2.872V42.872H4.308V41.436H2.872V40H1.436v1.436H0v1.436H1.436Z" transform="translate(1305.742 1381.462)"/>
    <path id="Path_22379" data-name="Path 22379" d="M4.308,50.872V49.436H2.872V48H1.436v1.436H0v1.436H1.436v1.436H2.872V50.872Z" transform="translate(1305.742 1379.206)"/>
    <path id="Path_22380" data-name="Path 22380" d="M58.872,7.436V6H57.436V7.436H56V8.872h1.436v1.436h1.436V8.872h1.436V7.436Z" transform="translate(1289.949 1391.05)"/>
    <path id="Path_22381" data-name="Path 22381" d="M58.872,14H57.436v1.436H56v1.436h1.436v1.436h1.436V16.872h1.436V15.436H58.872Z" transform="translate(1289.949 1388.794)"/>
    <path id="Path_22382" data-name="Path 22382" d="M58.872,22H57.436v1.436H56v1.436h1.436v1.436h1.436V24.872h1.436V23.436H58.872Z" transform="translate(1289.949 1386.538)"/>
    <path id="Path_22383" data-name="Path 22383" d="M22,46h1.436v1.436H22Z" transform="translate(1299.539 1379.77)"/>
    <path id="Path_22384" data-name="Path 22384" d="M22,42h1.436v1.436H22Z" transform="translate(1299.539 1380.898)"/>
    <path id="Path_22385" data-name="Path 22385" d="M54.924,32H43.436A1.437,1.437,0,0,0,42,33.436v2.4a10.447,10.447,0,0,0,2.606,6.934A10.447,10.447,0,0,0,42,49.7v2.4a1.437,1.437,0,0,0,1.436,1.436H54.924A1.437,1.437,0,0,0,56.36,52.1V49.7a10.447,10.447,0,0,0-2.606-6.934,10.447,10.447,0,0,0,2.606-6.934v-2.4A1.437,1.437,0,0,0,54.924,32Zm0,1.436v1.436H43.436V33.436ZM43.436,52.1V50.668H54.924V52.1Zm8.826-8.826A9.016,9.016,0,0,1,54.9,49.232H43.459A9.016,9.016,0,0,1,46.1,43.278l.508-.508-.508-.508a9.016,9.016,0,0,1-2.639-5.954H54.9a9.016,9.016,0,0,1-2.639,5.954l-.508.508Z" transform="translate(1293.898 1383.718)"/>
  </g>
</svg>
