<svg id="Capa_1" enable-background="new 0 0 512 512" viewBox="0 0 512 512" xmlns="http://www.w3.org/2000/svg"><g><path d="m439.067 175.326-14.839 14.839c-2.826 2.827-6.414 4.681-12.103 4.319l-40.435-4.054c5.079 7.91 9.484 16.255 13.182 24.998 8.663 20.48 13.055 42.218 13.055 64.61s-4.392 44.13-13.055 64.61c-8.361 19.767-20.323 37.512-35.555 52.745-15.232 15.232-32.978 27.195-52.745 35.555-20.48 8.662-42.218 13.055-64.61 13.055s-44.13-4.392-64.61-13.055c-19.767-8.361-37.513-20.323-52.745-35.555s-27.195-32.978-35.555-52.745c-8.662-20.48-13.055-42.218-13.055-64.61s4.392-44.13 13.055-64.61c8.36-19.767 20.323-37.512 35.555-52.745s32.978-27.195 52.745-35.555c20.48-8.662 42.218-13.055 64.61-13.055s44.13 4.392 64.61 13.055c8.743 3.698 17.089 8.104 24.999 13.182l-4.054-40.435c-.449-4.478 1.136-8.921 4.318-12.103l14.839-14.839c-32.062-16.251-67.725-24.856-104.712-24.856-61.959 0-120.21 24.128-164.022 67.94-43.812 43.812-67.94 102.063-67.94 164.022s24.128 120.21 67.939 164.021c43.813 43.812 102.064 67.94 164.023 67.94s120.21-24.128 164.021-67.94 67.939-102.062 67.939-164.021c.001-36.988-8.603-72.651-24.855-104.713z"/><path d="m367.927 280.039c0-32.141-11.16-61.672-29.806-84.945l-36.425 36.425c9.61 13.77 15.268 30.492 15.268 48.52 0 46.87-38.132 85.002-85.002 85.002s-85.002-38.132-85.002-85.002 38.132-85.002 85.002-85.002c18.028 0 34.751 5.658 48.521 15.269l36.425-36.425c-23.273-18.647-52.804-29.807-84.946-29.807-75.091 0-135.965 60.874-135.965 135.965s60.874 135.965 135.965 135.965 135.965-60.874 135.965-135.965z"/><path d="m231.962 295.039c-3.839 0-7.678-1.464-10.606-4.393-5.858-5.858-5.858-15.355 0-21.213l37.416-37.416c-7.934-4.439-17.073-6.979-26.81-6.979-30.377 0-55.002 24.625-55.002 55.002s24.625 55.002 55.002 55.002 55.002-24.625 55.002-55.002c0-9.737-2.541-18.876-6.979-26.809l-37.416 37.416c-2.929 2.928-6.768 4.392-10.607 4.392z"/><path d="m473.786 59.427 33.821-33.821c5.858-5.858 5.858-15.355 0-21.213-5.857-5.858-15.355-5.858-21.213 0l-33.821 33.821 1.933 19.28z"/><path d="m481.605 90.362-42.297-4.241c-7.102-.712-12.717-6.328-13.429-13.429l-4.241-42.297-73.562 73.563 5.464 54.502 54.502 5.465z"/></g><g/><g/><g/><g/><g/><g/><g/><g/><g/><g/><g/><g/><g/><g/><g/></svg>