<svg xmlns="http://www.w3.org/2000/svg" width="42.621" height="42.621" viewBox="0 0 42.621 42.621">
  <g id="Group_32140" data-name="Group 32140" transform="translate(-729.689 -1403.689)">
    <path id="Path_22305" data-name="Path 22305" d="M26.937,22.873a.687.687,0,0,0,.441-.159l2.968-2.475a15.322,15.322,0,0,0,5.528-11.8.687.687,0,0,0-.687-.687h-.412a11.9,11.9,0,0,1-7.407-2.6.687.687,0,0,0-.859,0A11.9,11.9,0,0,1,19.1,7.75h-.412A.687.687,0,0,0,18,8.437a15.32,15.32,0,0,0,5.528,11.8L26.5,22.714A.687.687,0,0,0,26.937,22.873ZM19.391,9.125a13.287,13.287,0,0,0,7.545-2.571,13.291,13.291,0,0,0,7.545,2.571,13.944,13.944,0,0,1-5.018,10.062l-2.527,2.106-2.529-2.107A13.943,13.943,0,0,1,19.391,9.125Z" transform="translate(723.375 1401.439)"/>
    <path id="Path_22306" data-name="Path 22306" d="M28.634,20.833l2.151-1.843a10.888,10.888,0,0,0,3.575-6.106.687.687,0,0,0-.673-.822,7.609,7.609,0,0,1-4.537-1.512l-.55-.412a.687.687,0,0,0-.825,0l-.55.412a7.613,7.613,0,0,1-4.537,1.512.687.687,0,0,0-.674.825,10.888,10.888,0,0,0,3.575,6.106l2.151,1.843a.687.687,0,0,0,.894,0Zm-2.151-2.887a9.513,9.513,0,0,1-2.93-4.552,9.01,9.01,0,0,0,4.5-1.745l.137-.1.137.1a9.005,9.005,0,0,0,4.5,1.745,9.513,9.513,0,0,1-2.93,4.552l-1.7,1.46Z" transform="translate(722.125 1399.876)"/>
    <path id="Path_22307" data-name="Path 22307" d="M42.934,24.373H36.747V1.687A.687.687,0,0,0,36.059,1H7.187a.687.687,0,0,0-.687.687V18.873H1.687A.687.687,0,0,0,1,19.561V40.184a3.441,3.441,0,0,0,3.437,3.437H33.31a3.441,3.441,0,0,0,3.437-3.437V38.122h6.187a.687.687,0,0,0,.687-.687V25.06A.687.687,0,0,0,42.934,24.373ZM2.375,40.184V20.248H6.5V40.184a2.062,2.062,0,1,1-4.125,0Zm33,0a2.062,2.062,0,0,1-2.062,2.062H7.169a3.4,3.4,0,0,0,.705-2.062V2.375h27.5v22h-.687A.687.687,0,0,0,34,25.06v.687H32.219L29.872,23.4v-3.84a.687.687,0,0,0-.687-.687H28.5a2.75,2.75,0,0,0-2.75,2.75v4.125H20.936a2.062,2.062,0,0,0-2.062,2.062v8.249a2.062,2.062,0,0,0,2.062,2.062h8.249a.687.687,0,0,0,.307-.069l2.6-1.306H34v.687a.687.687,0,0,0,.687.687h.687ZM34,35.372H31.935a.687.687,0,0,0-.307.069l-2.6,1.306H20.936a.687.687,0,0,1-.687-.687v-.687h5.5V34h-5.5V32.622h5.5V31.247h-5.5V29.872h5.5V28.5h-5.5V27.81a.687.687,0,0,1,.687-.687h5.5a.687.687,0,0,0,.687-.687V21.623A1.375,1.375,0,0,1,28.5,20.248v3.437a.687.687,0,0,0,.2.486l2.75,2.75a.687.687,0,0,0,.486.2H34Zm8.249,1.375H35.372v-11h6.874Z" transform="translate(728.689 1402.689)"/>
    <path id="Path_22308" data-name="Path 22308" d="M19.5,30.553a.67.67,0,0,0-.316-.087h-5.5a.687.687,0,0,0-.687.687v5.5a.687.687,0,0,0,.687.687h5.5a.687.687,0,0,0,.687-.687V32.126l1.861-1.861-.972-.972Zm-1,5.413H14.375V31.841h3.84l-1.778,1.778-.889-.889-.972.972,1.375,1.375a.687.687,0,0,0,.972,0L18.5,33.5Z" transform="translate(724.939 1393.846)"/>
    <path id="Path_22309" data-name="Path 22309" d="M20.763,41.293l-1.26,1.26a.668.668,0,0,0-.316-.087h-5.5a.687.687,0,0,0-.687.687v5.5a.687.687,0,0,0,.687.687h5.5a.687.687,0,0,0,.687-.687V44.126l1.861-1.861ZM18.5,47.966H14.375V43.841h3.84l-1.778,1.778-.889-.889-.972.972,1.375,1.375a.687.687,0,0,0,.972,0L18.5,45.5Z" transform="translate(724.939 1390.096)"/>
  </g>
</svg>
