<svg xmlns="http://www.w3.org/2000/svg" width="56" height="56" viewBox="0 0 56 56">
  <g id="Group_32142" data-name="Group 32142" transform="translate(-723 -1593)">
    <path id="Path_22299" data-name="Path 22299" d="M2,40a3,3,0,0,0,3,3H9a1,1,0,0,0,1-1V30a1,1,0,0,0-1-1H5a3,3,0,0,0-3,3Z" transform="translate(721 1591)"/>
    <path id="Path_22300" data-name="Path 22300" d="M54,27V26A24,24,0,1,0,6,26v1H8V26a22,22,0,0,1,44,0v1Z" transform="translate(721 1591)"/>
    <path id="Path_22301" data-name="Path 22301" d="M41,55H36v2h5A13.009,13.009,0,0,0,53.949,45h-2A11.01,11.01,0,0,1,41,55Z" transform="translate(721 1591)"/>
    <path id="Path_22302" data-name="Path 22302" d="M28,58h5a1,1,0,0,0,1-1V55a1,1,0,0,0-1-1H28a2,2,0,0,0,0,4Z" transform="translate(721 1591)"/>
    <path id="Path_22303" data-name="Path 22303" d="M30,52A18,18,0,1,0,12,34,18,18,0,0,0,30,52Zm8-23h5a1,1,0,0,1,.848,1.53l-5,8a1,1,0,1,1-1.7-1.06L41.2,31H38a1,1,0,0,1,0-2Zm-4.98-.2a1,1,0,0,1,1.96.392l-2,10A1,1,0,0,1,32,40a.948.948,0,0,1-.2-.02,1,1,0,0,1-.78-1.18ZM23,30a1,1,0,0,1,2,0v5h1V34a1,1,0,0,1,2,0v1h1a1,1,0,0,1,0,2H28v1a1,1,0,0,1-2,0V37H24a1,1,0,0,1-1-1Zm-8,8c0-1.964,1.337-2.937,2.412-3.718,1.014-.738,1.588-1.2,1.588-2.1A1.1,1.1,0,0,0,18,31c-.654,0-1.09.87-1.095.879a1,1,0,1,1-1.814-.842A3.4,3.4,0,0,1,18,29a3.1,3.1,0,0,1,3,3.182c0,1.964-1.337,2.936-2.412,3.717A5.867,5.867,0,0,0,17.325,37H20a1,1,0,0,1,0,2H16A1,1,0,0,1,15,38Z" transform="translate(721 1591)"/>
    <path id="Path_22304" data-name="Path 22304" d="M58,32a3,3,0,0,0-3-3H51a1,1,0,0,0-1,1V42a1,1,0,0,0,1,1h4a3,3,0,0,0,3-3Z" transform="translate(721 1591)"/>
  </g>
</svg>
