<svg xmlns="http://www.w3.org/2000/svg" width="28.968" height="38.615" viewBox="0 0 28.968 38.615">
  <g id="Group_32143" data-name="Group 32143" transform="translate(-1313.516 -1602.692)">
    <path id="Path_22416" data-name="Path 22416" d="M49.015,40.448a.6.6,0,0,1-.591-.483c-.151-.744-.807-2.764-2.013-3.166a.6.6,0,0,1,0-1.146c1.207-.4,1.862-2.422,2.013-3.166a.6.6,0,0,1,1.183,0c.151.745.807,2.765,2.013,3.166a.6.6,0,0,1,0,1.146c-1.207.4-1.862,2.422-2.013,3.166A.6.6,0,0,1,49.015,40.448Zm-1.24-4.224a5.214,5.214,0,0,1,1.24,1.745,5.214,5.214,0,0,1,1.24-1.745,5.214,5.214,0,0,1-1.24-1.745A5.214,5.214,0,0,1,47.775,36.225Z" transform="translate(1290.449 1589.999)"/>
    <path id="Path_22417" data-name="Path 22417" d="M43.015,9.448a.6.6,0,0,1-.591-.483c-.151-.744-.807-2.764-2.013-3.166a.6.6,0,0,1,0-1.146c1.207-.4,1.862-2.422,2.013-3.166a.6.6,0,0,1,1.183,0c.151.745.807,2.765,2.013,3.166a.6.6,0,0,1,0,1.146c-1.207.4-1.862,2.422-2.013,3.166A.6.6,0,0,1,43.015,9.448Zm-1.24-4.224a5.214,5.214,0,0,1,1.24,1.745,5.214,5.214,0,0,1,1.24-1.745,5.214,5.214,0,0,1-1.24-1.745A5.214,5.214,0,0,1,41.775,5.225Z" transform="translate(1292.828 1602.294)"/>
    <path id="Path_22418" data-name="Path 22418" d="M11.015,21.448a.6.6,0,0,1-.591-.483c-.151-.744-.807-2.764-2.013-3.166a.6.6,0,0,1,0-1.146c1.207-.4,1.862-2.422,2.013-3.166a.6.6,0,0,1,1.183,0c.151.745.807,2.765,2.013,3.166a.6.6,0,0,1,0,1.146c-1.207.4-1.862,2.422-2.013,3.166A.6.6,0,0,1,11.015,21.448Zm-1.24-4.224a5.214,5.214,0,0,1,1.24,1.745,5.214,5.214,0,0,1,1.24-1.745,5.214,5.214,0,0,1-1.24-1.745A5.214,5.214,0,0,1,9.775,17.225Z" transform="translate(1305.52 1597.535)"/>
    <path id="Path_22419" data-name="Path 22419" d="M33.6,31.447a.6.6,0,0,1-.427-1.03l7.24-7.24a.6.6,0,1,1,.853.853l-7.24,7.24A.6.6,0,0,1,33.6,31.447Z" transform="translate(1295.604 1593.57)"/>
    <path id="Path_22420" data-name="Path 22420" d="M31.017,30.894a.6.6,0,0,1-.426-.177L28.177,28.3a.6.6,0,0,1,0-.853L41.451,14.177a.6.6,0,0,1,.853,0l2.413,2.413a.6.6,0,0,1,0,.853L31.443,30.718A.6.6,0,0,1,31.017,30.894Zm-1.56-3.017,1.56,1.56L43.438,17.017l-1.56-1.56Z" transform="translate(1297.586 1597.139)"/>
    <path id="Path_22421" data-name="Path 22421" d="M25.6,41.43a.6.6,0,0,1-.554-.841l1.81-4.224a.6.6,0,1,1,1.109.475L26.75,39.68l2.836-1.216a.6.6,0,1,1,.475,1.109l-4.224,1.81A.6.6,0,0,1,25.6,41.43Z" transform="translate(1298.775 1588.414)"/>
    <path id="Path_22422" data-name="Path 22422" d="M49.017,21.62a.6.6,0,0,1-.426-.177L46.177,19.03a.6.6,0,1,1,.853-.853l2.413,2.414a.6.6,0,0,1-.427,1.03Z" transform="translate(1290.447 1595.553)"/>
    <path id="Path_22423" data-name="Path 22423" d="M27.654,13.877h-7.24a.6.6,0,0,1-.5-.269C17.993,10.731,18,1.592,18,1.207a.6.6,0,0,1,.413-.571l1.81-.6a.6.6,0,0,1,.794.58,3.51,3.51,0,0,0,.863,2.238,2.912,2.912,0,0,0,2.153.769,2.907,2.907,0,0,0,2.16-.775A3.529,3.529,0,0,0,27.05.613a.6.6,0,0,1,.794-.582l1.81.6a.6.6,0,0,1,.413.573c0,.387.007,9.526-1.911,12.4A.6.6,0,0,1,27.654,13.877Zm-6.9-1.207h6.556c1.216-2.275,1.523-8.316,1.549-11.03l-.684-.228a4.372,4.372,0,0,1-1.122,2.278,4.061,4.061,0,0,1-3.021,1.136,4.061,4.061,0,0,1-3.017-1.136,4.372,4.372,0,0,1-1.122-2.278l-.688.228C19.232,4.354,19.539,10.4,20.756,12.671Z" transform="translate(1301.553 1602.692)"/>
    <path id="Path_22424" data-name="Path 22424" d="M20.464,46.945c-8.313,0-11.005-1.212-11.116-1.263A.6.6,0,0,1,9,45.138c0-.146-.008-3.666,1.828-11.012a44.272,44.272,0,0,1,5.515-12.861.6.6,0,0,1,.5-.265h7.24a.6.6,0,0,1,.5.265c.021.031.516.767,1.235,2.068a.6.6,0,1,1-1.057.583c-.446-.808-.807-1.4-1.006-1.71H17.172A44.489,44.489,0,0,0,12,34.421a55.7,55.7,0,0,0-1.779,10.3c.953.3,3.909,1.022,10.245,1.022,6.39,0,9.3-.717,10.245-1.019a55.655,55.655,0,0,0-1.779-10.3c-.294-1.177-.654-2.377-1.07-3.568a.6.6,0,1,1,1.14-.4c.427,1.225.8,2.461,1.1,3.673,1.837,7.346,1.828,10.866,1.828,11.012a.6.6,0,0,1-.348.543C31.469,45.733,28.777,46.945,20.464,46.945Zm10.861-1.81Z" transform="translate(1305.123 1594.363)"/>
  </g>
</svg>
