<svg id="Capa_1" enable-background="new 0 0 510.941 510.941" height="512" viewBox="0 0 510.941 510.941" width="512" xmlns="http://www.w3.org/2000/svg"><g><path d="m255.47 510.83c24.53 0 45.09-17.37 50.01-40.46h-100.02c4.92 23.09 25.48 40.46 50.01 40.46z"/><path d="m176.8 407.76v32.61h157.34v-31.65c0-8.21 1.12-16.28 3.27-24h-163.68c2.02 7.41 3.07 15.15 3.07 23.04z"/><path d="m373.54 100.18c-30.83-31.22-71.94-48.74-115.77-49.33-44.33-.61-86.26 16.26-118.17 47.48-31.89 31.19-49.66 72.73-50.03 116.97-.41 48.86 20.59 95.2 57.61 127.13 4.32 3.72 8.21 7.84 11.64 12.29h193.51c3.53-4.62 7.54-8.9 11.98-12.76 36.27-31.56 57.07-77.2 57.07-125.22 0-43.92-16.99-85.31-47.84-116.56zm-8.87 113.8c-1.87 2.99-46.48 73.18-109.2 73.18s-107.33-70.19-109.2-73.18l-4.97-7.95 4.97-7.95c1.87-2.99 46.48-73.18 109.2-73.18s107.33 70.19 109.2 73.18l4.97 7.95z"/><path d="m255.47 154.9c-35.61 0-66.02 34.99-78.15 51.13 12.13 16.13 42.54 51.13 78.15 51.13s66.02-35 78.15-51.13c-12.12-16.12-42.53-51.13-78.15-51.13zm15 66.13h-30v-30h30z"/><path d="m75.914 4.274h30v44h-30z" transform="matrix(.707 -.707 .707 .707 8.05 71.981)"/><path d="m10.471 120.387h30v44h-30z" transform="matrix(.298 -.955 .955 .298 -118.037 124.266)"/><path d="m68.914 390.387h44v30h-44z" transform="matrix(.707 -.707 .707 .707 -260.024 183.021)"/><path d="m3.471 274.387h44v30h-44z" transform="matrix(.955 -.298 .298 .955 -85.084 20.74)"/><path d="m398.026 11.274h44v30h-44z" transform="matrix(.707 -.707 .707 .707 104.445 304.699)"/><path d="m463.47 127.386h44v30h-44z" transform="matrix(.955 -.298 .298 .955 -20.374 151.163)"/><path d="m405.027 383.387h30v44h-30z" transform="matrix(.707 -.707 .707 .707 -163.629 415.734)"/><path d="m470.47 267.386h30v44h-30z" transform="matrix(.298 -.955 .955 .298 64.555 666.555)"/></g></svg>